<svg width="20" height="20" viewBox="0 0 20 20" fill="none" xmlns="http://www.w3.org/2000/svg">
<path fill="currentColor" fill-rule="evenodd" clip-rule="evenodd" d="M8.57359 0.0559089C4.81426 0.47993 1.62376 3.08853 0.46316 6.6872C-0.824566 10.68 0.634072 15.0431 4.07826 17.5008C5.64266 18.6171 7.66893 19.2592 9.62741 19.2592C14.188 19.2592 18.1407 16.0277 19.0606 11.5472C19.8907 7.50425 18.0075 3.35069 14.4067 1.28247C12.6601 0.279272 10.5421 -0.166113 8.57359 0.0559089ZM11.1124 1.12947C12.8826 1.44763 14.4191 2.25558 15.711 3.54752C17.0088 4.8453 17.8047 6.36296 18.1351 8.17012C18.2585 8.84515 18.2585 10.4171 18.1351 11.0921C17.4867 14.6386 14.8516 17.3419 11.3067 18.0972C10.756 18.2146 10.6141 18.2254 9.62741 18.2254C8.6407 18.2254 8.49882 18.2146 7.9481 18.0972C5.61627 17.6004 3.68322 16.2897 2.40502 14.3388C1.81991 13.4457 1.39517 12.411 1.16199 11.3104C1.04583 10.7622 1.03443 10.6134 1.03362 9.63111C1.03275 8.64166 1.0432 8.50404 1.16108 7.95179C1.94326 4.28697 4.79706 1.60589 8.47779 1.07793C9.08053 0.991466 10.499 1.0192 11.1124 1.12947ZM8.76519 5.57747C7.87112 5.78469 7.0134 6.29479 6.47241 6.94088C6.22457 7.23691 5.88044 7.82744 5.74211 8.19407C5.41164 9.0699 5.41983 10.2642 5.76213 11.1116C6.28942 12.4171 7.31954 13.3192 8.67433 13.6617C9.00844 13.7462 9.16617 13.7575 9.74209 13.7381C10.5437 13.7109 10.8186 13.6448 11.4716 13.3219C12.3249 12.9 12.8856 12.3397 13.3151 11.4794C13.6657 10.7773 13.723 10.5179 13.723 9.63111C13.723 8.74882 13.6665 8.49077 13.3192 7.78691C13.0494 7.24022 12.6888 6.77931 12.2522 6.42317C11.908 6.14237 11.1297 5.74086 10.7052 5.62509C10.3274 5.52205 9.13097 5.49269 8.76519 5.57747Z"/>
</svg>
