<svg width="10" height="10" viewBox="0 0 10 10" fill="none" xmlns="http://www.w3.org/2000/svg">
<path fill-rule="evenodd" clip-rule="evenodd" d="M0.758834 0.768926C0.341457 1.18151 0 1.53098 0 1.54553C0 1.56005 0.703539 2.27599 1.56338 3.13649L3.12676 4.701L1.56338 6.25593C0.703539 7.11116 0 7.8226 0 7.83693C0 7.85127 0.345627 8.20834 0.76805 8.6304L1.53613 9.39782L3.10855 7.8257L4.68099 6.25359L6.25355 7.82582L7.82607 9.39804L8.60304 8.62107L9.38001 7.8441L7.80779 6.27158L6.23556 4.69902L7.80779 3.12646L9.38001 1.55394L8.60304 0.776972L7.82607 0L6.25355 1.57223L4.68099 3.14446L3.11747 1.58126C2.25752 0.721494 1.54575 0.0181751 1.53581 0.0183945C1.52582 0.0185774 1.17621 0.35634 0.758834 0.768926Z" fill="currentColor"/>
</svg>
